<?xml version="1.0" encoding="utf-8"?>
<!-- Generator: Adobe Illustrator 19.2.1, SVG Export Plug-In . SVG Version: 6.00 Build 0)  -->
<svg version="1.1" id="Layer_1" xmlns="http://www.w3.org/2000/svg" xmlns:xlink="http://www.w3.org/1999/xlink" x="0px" y="0px"
	 viewBox="0 0 461.7 550" style="enable-background:new 0 0 461.7 550;" xml:space="preserve">
<style type="text/css">
	.st0{fill:#80CFD3;stroke:#80CFD3;stroke-width:0.25;stroke-linejoin:round;stroke-miterlimit:1;}
	.st1{fill:#8BD3DA;stroke:#8BD3DA;stroke-width:0.25;stroke-linejoin:round;stroke-miterlimit:1;}
	.st2{fill:#67BAB1;stroke:#67BAB1;stroke-width:0.25;stroke-linejoin:round;stroke-miterlimit:1;}
	.st3{fill:#A6DCE7;stroke:#A6DCE7;stroke-width:0.25;stroke-linejoin:round;stroke-miterlimit:1;}
	.st4{fill:#8AD3DD;stroke:#8AD3DD;stroke-width:0.25;stroke-linejoin:round;stroke-miterlimit:1;}
	.st5{fill:#BBE4ED;stroke:#BBE4ED;stroke-width:0.25;stroke-linejoin:round;stroke-miterlimit:1;}
	.st6{fill:#E4F3F7;stroke:#E4F3F7;stroke-width:0.25;stroke-linejoin:round;stroke-miterlimit:1;}
	.st7{fill:#7CCCC8;stroke:#7CCCC8;stroke-width:0.25;stroke-linejoin:round;stroke-miterlimit:1;}
	.st8{fill:#74C3C1;stroke:#74C3C1;stroke-width:0.25;stroke-linejoin:round;stroke-miterlimit:1;}
	.st9{fill:#88D2DD;stroke:#88D2DD;stroke-width:0.25;stroke-linejoin:round;stroke-miterlimit:1;}
	.st10{fill:#8AD3E4;stroke:#8AD3E4;stroke-width:0.25;stroke-linejoin:round;stroke-miterlimit:1;}
	.st11{fill:#64B7AA;stroke:#64B7AA;stroke-width:0.25;stroke-linejoin:round;stroke-miterlimit:1;}
	.st12{fill:#9FDAE4;stroke:#9FDAE4;stroke-width:0.25;stroke-linejoin:round;stroke-miterlimit:1;}
	.st13{fill:#A8DEED;stroke:#A8DEED;stroke-width:0.25;stroke-linejoin:round;stroke-miterlimit:1;}
	.st14{fill:#B1E1F1;stroke:#B1E1F1;stroke-width:0.25;stroke-linejoin:round;stroke-miterlimit:1;}
	.st15{fill:#A0DCF4;stroke:#A0DCF4;stroke-width:0.25;stroke-linejoin:round;stroke-miterlimit:1;}
	.st16{fill:#9CD9E7;stroke:#9CD9E7;stroke-width:0.25;stroke-linejoin:round;stroke-miterlimit:1;}
	.st17{fill:#71C1BC;stroke:#71C1BC;stroke-width:0.25;stroke-linejoin:round;stroke-miterlimit:1;}
	.st18{fill:#9CD8E0;stroke:#9CD8E0;stroke-width:0.25;stroke-linejoin:round;stroke-miterlimit:1;}
	.st19{fill:#B2E1ED;stroke:#B2E1ED;stroke-width:0.25;stroke-linejoin:round;stroke-miterlimit:1;}
	.st20{fill:#7ACCCF;stroke:#7ACCCF;stroke-width:0.25;stroke-linejoin:round;stroke-miterlimit:1;}
	.st21{fill:#D4EDF3;stroke:#D4EDF3;stroke-width:0.25;stroke-linejoin:round;stroke-miterlimit:1;}
	.st22{fill:#7ACCC9;stroke:#7ACCC9;stroke-width:0.25;stroke-linejoin:round;stroke-miterlimit:1;}
	.st23{fill:#8DD3D8;stroke:#8DD3D8;stroke-width:0.25;stroke-linejoin:round;stroke-miterlimit:1;}
	.st24{fill:#6EBEBA;stroke:#6EBEBA;stroke-width:0.25;stroke-linejoin:round;stroke-miterlimit:1;}
	.st25{fill:#80CED0;stroke:#80CED0;stroke-width:0.25;stroke-linejoin:round;stroke-miterlimit:1;}
	.st26{fill:#8CD4E1;stroke:#8CD4E1;stroke-width:0.25;stroke-linejoin:round;stroke-miterlimit:1;}
	.st27{fill:#CDEBF1;stroke:#CDEBF1;stroke-width:0.25;stroke-linejoin:round;stroke-miterlimit:1;}
	.st28{fill:#ADE0F0;stroke:#ADE0F0;stroke-width:0.25;stroke-linejoin:round;stroke-miterlimit:1;}
	.st29{fill:#B9E3EC;stroke:#B9E3EC;stroke-width:0.25;stroke-linejoin:round;stroke-miterlimit:1;}
	.st30{fill:#8DD4E0;stroke:#8DD4E0;stroke-width:0.25;stroke-linejoin:round;stroke-miterlimit:1;}
	.st31{fill:#69BAB3;stroke:#69BAB3;stroke-width:0.25;stroke-linejoin:round;stroke-miterlimit:1;}
	.st32{fill:#CCEAF1;stroke:#CCEAF1;stroke-width:0.25;stroke-linejoin:round;stroke-miterlimit:1;}
	.st33{fill:#9BD9E6;stroke:#9BD9E6;stroke-width:0.25;stroke-linejoin:round;stroke-miterlimit:1;}
	.st34{fill:#A6DDF0;stroke:#A6DDF0;stroke-width:0.25;stroke-linejoin:round;stroke-miterlimit:1;}
	.st35{fill:#A3DDF8;stroke:#A3DDF8;stroke-width:0.25;stroke-linejoin:round;stroke-miterlimit:1;}
	.st36{fill:#79CAC7;stroke:#79CAC7;stroke-width:0.25;stroke-linejoin:round;stroke-miterlimit:1;}
	.st37{fill:#1A1A1A;}
</style>
<g>
	<polygon class="st0" points="374.5,218.5 275.9,287 383.6,287.7 	"/>
	<polygon class="st1" points="383.6,287.7 278.7,304.5 347.9,357.7 	"/>
	<polyline class="st2" points="383.6,287.7 275.9,287 278.7,304.5 383.6,287.7 	"/>
	<polygon class="st3" points="261.2,198.9 275.9,287 374.5,218.5 	"/>
	<polygon class="st4" points="347.9,357.7 278.7,304.5 303.2,361.2 	"/>
	<polyline class="st5" points="261.2,198.9 219.2,220.6 275.9,287 261.2,198.9 	"/>
	<polyline class="st6" points="303.2,361.2 237.4,319.2 229.7,321.3 303.2,361.2 	"/>
	<polyline class="st7" points="303.2,361.2 229.7,321.3 207.3,419.2 303.2,361.2 	"/>
	<polygon class="st8" points="303.2,361.2 207.3,419.2 275.2,433.9 	"/>
	<polyline class="st9" points="303.2,361.2 278.7,304.5 237.4,319.2 303.2,361.2 	"/>
	<polyline class="st10" points="225.5,101 238.8,29.6 206.6,79.3 225.5,101 	"/>
	<polygon class="st11" points="275.2,433.9 207.3,419.2 249.3,452.1 	"/>
	<polygon class="st12" points="275.9,287 219.2,220.6 237.4,319.2 	"/>
	<polygon class="st11" points="278.7,304.5 275.9,287 237.4,319.2 	"/>
	<polygon class="st13" points="225.5,101 201.7,211.5 261.2,198.9 	"/>
	<polyline class="st14" points="225.5,101 180.7,201.7 201.7,211.5 225.5,101 	"/>
	<polygon class="st15" points="237.4,319.2 219.2,220.6 229.7,321.3 	"/>
	<polygon class="st16" points="229.7,321.3 194,414.3 207.3,419.2 	"/>
	<polyline class="st6" points="261.2,198.9 201.7,211.5 219.2,220.6 261.2,198.9 	"/>
	<line class="st17" x1="206.6" y1="529.1" x2="117.8" y2="463.3"/>
	<polygon class="st18" points="229.7,321.3 172.3,319.9 194,414.3 	"/>
	<polygon class="st19" points="229.7,321.3 219.2,220.6 172.3,319.9 	"/>
	<polygon class="st20" points="249.3,452.1 207.3,419.2 206.6,508.1 	"/>
	<polygon class="st21" points="219.2,220.6 201.7,211.5 172.3,319.9 	"/>
	<polygon class="st22" points="238.8,29.6 138.1,40.8 206.6,79.3 	"/>
	<polygon class="st23" points="194,414.3 172.3,319.9 173,415.7 	"/>
	<polyline class="st24" points="206.6,508.1 194,414.3 173,415.7 206.6,508.1 	"/>
	<polyline class="st25" points="206.6,508.1 207.3,419.2 194,414.3 206.6,508.1 	"/>
	<polyline class="st26" points="225.5,101 206.6,79.3 180.7,201.7 225.5,101 	"/>
	<polygon class="st27" points="201.7,211.5 180.7,201.7 172.3,319.9 	"/>
	<polygon class="st28" points="206.6,79.3 80,180.7 180.7,201.7 	"/>
	<polyline class="st29" points="206.6,508.1 173,415.7 117.8,463.3 206.6,508.1 	"/>
	<polygon class="st30" points="206.6,79.3 138.1,40.8 80,180.7 	"/>
	<polygon class="st31" points="206.6,508.1 117.8,463.3 206.6,529.1 	"/>
	<polygon class="st32" points="180.7,201.7 86.3,196.1 172.3,319.9 	"/>
	<polygon class="st23" points="173,415.7 172.3,319.9 107.3,415.7 	"/>
	<polyline class="st33" points="39.4,115.7 80,180.7 138.1,40.8 39.4,115.7 	"/>
	<polygon class="st34" points="172.3,319.9 86.3,196.1 42.2,338.8 	"/>
	<polygon class="st35" points="180.7,201.7 80,180.7 86.3,196.1 	"/>
	<polygon class="st36" points="173,415.7 107.3,415.7 117.8,463.3 	"/>
</g>
<g>
	<g>
		<path class="st37" d="M321.7,213.8c0-17.1-10.4-31.8-25.2-38.1c-5-2.1-10.4-3.3-16.1-3.3h-48.7h-0.1l0.1,115.2h25.1v-32.5h18.6
			l15.9,32.5h27.4L300,250.2C312.9,243.3,321.7,229.6,321.7,213.8z M296.6,213.8c0,9-7.3,16.3-16.3,16.3h-23.5v-32.5h23.5
			C289.3,197.6,296.6,204.8,296.6,213.8z"/>
		<path class="st37" d="M352.9,250.7v-8.9l-21.3,19.6l21.3,20.4v-8.9c20.3,0,32.4,17.6,32.4,35.5c0,17.9-12.5,36.1-32.4,36.1
			c-21.6,0-32.4-18.2-32.4-36.1h-25.2c0,31.8,25.8,57.6,57.6,57.6c31.8,0,57.6-25.8,57.6-57.6C410.6,276.5,384.8,250.7,352.9,250.7z
			"/>
	</g>
</g>
</svg>
